<?xml version="1.0" encoding="utf-8"?>
<!-- Generator: Adobe Illustrator 26.2.1, SVG Export Plug-In . SVG Version: 6.00 Build 0)  -->
<svg version="1.1" id="Ebene_1" xmlns="http://www.w3.org/2000/svg" xmlns:xlink="http://www.w3.org/1999/xlink" x="0px" y="0px"
	 viewBox="0 0 169.447 54" style="enable-background:new 0 0 169.447 54;" xml:space="preserve">
<style type="text/css">
	.st0{display:none;fill:#E30613;}
	.st1{fill:#FFFDF3;}
	.st2{fill-rule:evenodd;clip-rule:evenodd;fill:#194186;}
	.st3{display:none;}
	.st4{display:inline;}
	.st5{font-family:'BVBCopy-ExtraBold';}
	.st6{font-size:7.9146px;}
	.st7{fill:#FFFDF2;}
	.st8{display:inline;fill:#FFFDF3;}
</style>
<rect x="26.411" class="st0" width="128" height="54"/>
<g>
	<path class="st1" d="M115.434,0h54v54h-54V0z"/>
	<path class="st2" d="M116.703,1.255h51.476v51.475h-51.476V1.255z M152.586,17.726v-3.929h8.802v24.449h-4.82v-20.52
		L152.586,17.726L152.586,17.726z M148.374,25.556c0.23,2.7-0.148,4.158-0.459,4.887l-3.807-5.17
		c3.996-2.808,4.981-7.398,1.755-10.328c-2.673-1.89-5.413-1.89-8.235,0c-2.835,2.606-2.646,5.751,0.567,9.423
		c-5.494,3.375-5.953,7.141-3.577,11.124c2.538,3.753,8.195,4.631,13.109,1.418l0.958,1.31h5.171l-3.294-4.199
		c1.363-1.35,2.146-4.306,1.876-8.451h-4.064V25.556L148.374,25.556z M140.828,27.648c-2.633,1.755-3.456,3.618-2.16,5.67
		c1.471,1.647,3.82,1.593,6.412,0L140.828,27.648z M141.611,21.978l-1.08-1.593c-0.77-1.607-0.337-2.956,1.31-2.956
		c1.782,0.094,2.363,1.282,1.188,3.172L141.611,21.978z M121.469,17.739v-3.928h8.802v24.449h-4.819v-20.52L121.469,17.739
		L121.469,17.739z"/>
</g>
<text transform="matrix(1 0 0 1 25.5575 29.0605)" class="st3"><tspan x="0" y="0" class="st4 st5 st6">PRÄSENTIERT</tspan><tspan x="45.358" y="9.497" class="st4 st5 st6">VON</tspan></text>
<g>
	<path class="st7" d="M0.3,13.873h4.517c1.371,0,2.405,0.275,3.102,0.825c0.698,0.55,1.046,1.338,1.046,2.363
		c0,1.034-0.353,1.842-1.059,2.425c-0.706,0.582-1.736,0.873-3.09,0.873H2.688v3.151H0.3V13.873z M4.78,18.428
		c0.541,0,0.956-0.123,1.243-0.37c0.287-0.246,0.431-0.562,0.431-0.948c0-0.386-0.144-0.699-0.431-0.942
		c-0.287-0.241-0.702-0.363-1.243-0.363H2.688v2.622H4.78z"/>
	<path class="st7" d="M10.123,13.873h4.689c1.313,0,2.324,0.232,3.034,0.696c0.71,0.464,1.065,1.155,1.065,2.074
		c0,0.509-0.135,0.967-0.406,1.373c-0.27,0.406-0.677,0.732-1.219,0.978c0.895,0.148,1.342,0.722,1.342,1.724v1.33
		c0,0.295,0.021,0.544,0.062,0.744c0.041,0.2,0.115,0.433,0.222,0.696v0.024h-2.474c-0.074-0.188-0.125-0.374-0.154-0.554
		c-0.029-0.179-0.043-0.389-0.043-0.627v-1.046c0-0.443-0.103-0.757-0.308-0.942s-0.554-0.277-1.046-0.277H12.51v3.447h-2.387
		V13.873z M14.738,18.255c0.55,0,0.967-0.109,1.249-0.327c0.283-0.217,0.425-0.515,0.425-0.892s-0.142-0.675-0.425-0.892
		c-0.282-0.217-0.699-0.327-1.249-0.327H12.51v2.438H14.738z"/>
	<path class="st7" d="M23.662,13.873h2.744l4.123,9.638H27.92l-0.689-1.76h-4.381l-0.689,1.76h-2.609L23.662,13.873z M22.763,11.178
		h1.933v2.031h-1.933V11.178z M26.468,19.83l-1.428-3.643l-1.428,3.643H26.468z M25.36,11.178h1.945v2.031H25.36V11.178z"/>
	<path class="st7" d="M33.01,23.332c-0.661-0.258-1.188-0.623-1.582-1.095c-0.394-0.471-0.623-1.015-0.689-1.63h2.535
		c0.041,0.205,0.156,0.404,0.345,0.597c0.189,0.193,0.437,0.351,0.745,0.474c0.308,0.122,0.65,0.185,1.027,0.185
		c0.542,0,0.955-0.093,1.237-0.277c0.283-0.185,0.425-0.44,0.425-0.769c0-0.222-0.084-0.408-0.253-0.56
		c-0.168-0.152-0.445-0.273-0.831-0.363L33.779,19.4c-0.837-0.188-1.483-0.488-1.939-0.898s-0.683-0.992-0.683-1.748
		c0-0.566,0.163-1.083,0.487-1.551c0.323-0.468,0.802-0.841,1.434-1.12c0.632-0.279,1.391-0.418,2.277-0.418
		c0.82,0,1.536,0.125,2.147,0.375c0.611,0.251,1.087,0.603,1.428,1.059c0.341,0.456,0.532,0.987,0.573,1.594h-2.535
		c-0.082-0.352-0.287-0.636-0.615-0.849c-0.329-0.213-0.706-0.32-1.133-0.32c-0.468,0-0.839,0.089-1.114,0.265
		c-0.275,0.176-0.412,0.416-0.412,0.72c0,0.205,0.093,0.382,0.277,0.529c0.185,0.148,0.499,0.267,0.942,0.357l1.736,0.369
		c0.984,0.206,1.712,0.523,2.185,0.955c0.472,0.431,0.708,1.027,0.708,1.791c0,0.615-0.169,1.166-0.505,1.65
		c-0.336,0.483-0.827,0.866-1.471,1.144c-0.644,0.279-1.413,0.419-2.308,0.419C34.42,23.72,33.671,23.591,33.01,23.332z"/>
	<path class="st7" d="M40.857,13.873h7.68v1.945h-5.293v1.797h4.924v1.933h-4.924v2.018h5.441v1.945h-7.828V13.873z"/>
	<path class="st7" d="M50.223,13.873h2.683l4.222,6.204v-6.204h2.388v9.638h-2.684l-4.222-6.216v6.216h-2.387V13.873z"/>
	<path class="st7" d="M63.787,15.818h-3.176v-1.945h8.739v1.945h-3.176v7.693h-2.387V15.818z"/>
	<path class="st7" d="M70.433,13.873h2.387v9.638h-2.387V13.873z"/>
	<path class="st7" d="M74.79,13.873h7.68v1.945h-5.293v1.797h4.924v1.933h-4.924v2.018h5.441v1.945H74.79V13.873z"/>
	<path class="st7" d="M84.157,13.873h4.689c1.313,0,2.324,0.232,3.034,0.696c0.71,0.464,1.065,1.155,1.065,2.074
		c0,0.509-0.135,0.967-0.406,1.373c-0.27,0.406-0.677,0.732-1.219,0.978c0.895,0.148,1.342,0.722,1.342,1.724v1.33
		c0,0.295,0.021,0.544,0.062,0.744c0.041,0.2,0.115,0.433,0.222,0.696v0.024h-2.474c-0.074-0.188-0.125-0.374-0.154-0.554
		c-0.029-0.179-0.043-0.389-0.043-0.627v-1.046c0-0.443-0.103-0.757-0.308-0.942s-0.554-0.277-1.046-0.277h-2.376v3.447h-2.387
		V13.873z M88.772,18.255c0.55,0,0.967-0.109,1.249-0.327c0.283-0.217,0.425-0.515,0.425-0.892s-0.142-0.675-0.425-0.892
		c-0.282-0.217-0.699-0.327-1.249-0.327h-2.228v2.438H88.772z"/>
	<path class="st7" d="M96.737,15.818h-3.176v-1.945h8.739v1.945h-3.176v7.693h-2.388V15.818z"/>
	<path class="st7" d="M69.499,28.642h2.633l2.622,6.831l2.621-6.831h2.634l-3.951,9.638h-2.609L69.499,28.642z"/>
	<path class="st7" d="M82.509,37.861c-0.837-0.425-1.485-1.022-1.945-1.791c-0.459-0.767-0.689-1.643-0.689-2.627
		c0-0.984,0.23-1.856,0.689-2.615c0.459-0.759,1.108-1.35,1.945-1.772c0.837-0.424,1.801-0.635,2.892-0.635
		c1.084,0,2.039,0.211,2.868,0.635c0.828,0.422,1.472,1.013,1.933,1.772c0.459,0.759,0.689,1.631,0.689,2.615
		c0,0.984-0.229,1.86-0.689,2.627c-0.46,0.768-1.106,1.365-1.939,1.791c-0.833,0.427-1.787,0.641-2.862,0.641
		C84.31,38.502,83.345,38.288,82.509,37.861z M82.792,35.006c0.246,0.451,0.595,0.8,1.046,1.046
		c0.451,0.246,0.972,0.369,1.563,0.369c0.582,0,1.097-0.123,1.545-0.369c0.447-0.246,0.794-0.595,1.04-1.046
		c0.246-0.451,0.369-0.972,0.369-1.563c0-0.591-0.123-1.107-0.369-1.551c-0.246-0.443-0.593-0.787-1.04-1.028
		c-0.447-0.241-0.962-0.363-1.545-0.363c-0.591,0-1.112,0.121-1.563,0.363c-0.452,0.241-0.8,0.585-1.046,1.028
		c-0.246,0.443-0.369,0.96-0.369,1.551C82.423,34.034,82.546,34.555,82.792,35.006z"/>
	<path class="st7" d="M92.244,28.642h2.683l4.222,6.204v-6.204h2.387v9.638h-2.682l-4.223-6.216v6.216h-2.387V28.642z"/>
</g>
<g class="st3">
	<path class="st4" d="M0.3,13.873h4.517c1.371,0,2.405,0.275,3.102,0.825c0.698,0.55,1.046,1.338,1.046,2.363
		c0,1.034-0.353,1.842-1.059,2.425c-0.706,0.582-1.736,0.873-3.09,0.873H2.688v3.151H0.3V13.873z M4.78,18.428
		c0.541,0,0.956-0.123,1.243-0.37c0.287-0.246,0.431-0.562,0.431-0.948c0-0.386-0.144-0.699-0.431-0.942
		c-0.287-0.241-0.702-0.363-1.243-0.363H2.688v2.622H4.78z"/>
	<path class="st4" d="M10.123,13.873h4.689c1.313,0,2.324,0.232,3.034,0.696c0.71,0.464,1.065,1.155,1.065,2.074
		c0,0.509-0.135,0.967-0.406,1.373c-0.27,0.406-0.677,0.732-1.219,0.978c0.895,0.148,1.342,0.722,1.342,1.724v1.33
		c0,0.295,0.021,0.544,0.062,0.744c0.041,0.2,0.115,0.433,0.222,0.696v0.024h-2.474c-0.074-0.188-0.125-0.374-0.154-0.554
		c-0.029-0.179-0.043-0.389-0.043-0.627v-1.046c0-0.443-0.103-0.757-0.308-0.942s-0.554-0.277-1.046-0.277H12.51v3.447h-2.387
		V13.873z M14.738,18.255c0.55,0,0.967-0.109,1.249-0.327c0.283-0.217,0.425-0.515,0.425-0.892s-0.142-0.675-0.425-0.892
		c-0.282-0.217-0.699-0.327-1.249-0.327H12.51v2.438H14.738z"/>
	<path class="st4" d="M23.662,13.873h2.744l4.123,9.638H27.92l-0.689-1.76h-4.381l-0.689,1.76h-2.609L23.662,13.873z M22.763,11.178
		h1.933v2.031h-1.933V11.178z M26.468,19.83l-1.428-3.643l-1.428,3.643H26.468z M25.36,11.178h1.945v2.031H25.36V11.178z"/>
	<path class="st4" d="M33.01,23.332c-0.661-0.258-1.188-0.623-1.582-1.095c-0.394-0.471-0.623-1.015-0.689-1.63h2.535
		c0.041,0.205,0.156,0.404,0.345,0.597c0.189,0.193,0.437,0.351,0.745,0.474c0.308,0.122,0.65,0.185,1.027,0.185
		c0.542,0,0.955-0.093,1.237-0.277c0.283-0.185,0.425-0.44,0.425-0.769c0-0.222-0.084-0.408-0.253-0.56
		c-0.168-0.152-0.445-0.273-0.831-0.363L33.779,19.4c-0.837-0.188-1.483-0.488-1.939-0.898s-0.683-0.992-0.683-1.748
		c0-0.566,0.163-1.083,0.487-1.551c0.323-0.468,0.802-0.841,1.434-1.12c0.632-0.279,1.391-0.418,2.277-0.418
		c0.82,0,1.536,0.125,2.147,0.375c0.611,0.251,1.087,0.603,1.428,1.059c0.341,0.456,0.532,0.987,0.573,1.594h-2.535
		c-0.082-0.352-0.287-0.636-0.615-0.849c-0.329-0.213-0.706-0.32-1.133-0.32c-0.468,0-0.839,0.089-1.114,0.265
		c-0.275,0.176-0.412,0.416-0.412,0.72c0,0.205,0.093,0.382,0.277,0.529c0.185,0.148,0.499,0.267,0.942,0.357l1.736,0.369
		c0.984,0.206,1.712,0.523,2.185,0.955c0.472,0.431,0.708,1.027,0.708,1.791c0,0.615-0.169,1.166-0.505,1.65
		c-0.336,0.483-0.827,0.866-1.471,1.144c-0.644,0.279-1.413,0.419-2.308,0.419C34.42,23.72,33.671,23.591,33.01,23.332z"/>
	<path class="st4" d="M40.857,13.873h7.68v1.945h-5.293v1.797h4.924v1.933h-4.924v2.018h5.441v1.945h-7.828V13.873z"/>
	<path class="st4" d="M50.223,13.873h2.683l4.222,6.204v-6.204h2.388v9.638h-2.684l-4.222-6.216v6.216h-2.387V13.873z"/>
	<path class="st4" d="M63.787,15.818h-3.176v-1.945h8.739v1.945h-3.176v7.693h-2.387V15.818z"/>
	<path class="st4" d="M70.433,13.873h2.387v9.638h-2.387V13.873z"/>
	<path class="st4" d="M74.79,13.873h7.68v1.945h-5.293v1.797h4.924v1.933h-4.924v2.018h5.441v1.945H74.79V13.873z"/>
	<path class="st4" d="M84.157,13.873h4.689c1.313,0,2.324,0.232,3.034,0.696c0.71,0.464,1.065,1.155,1.065,2.074
		c0,0.509-0.135,0.967-0.406,1.373c-0.27,0.406-0.677,0.732-1.219,0.978c0.895,0.148,1.342,0.722,1.342,1.724v1.33
		c0,0.295,0.021,0.544,0.062,0.744c0.041,0.2,0.115,0.433,0.222,0.696v0.024h-2.474c-0.074-0.188-0.125-0.374-0.154-0.554
		c-0.029-0.179-0.043-0.389-0.043-0.627v-1.046c0-0.443-0.103-0.757-0.308-0.942s-0.554-0.277-1.046-0.277h-2.376v3.447h-2.387
		V13.873z M88.772,18.255c0.55,0,0.967-0.109,1.249-0.327c0.283-0.217,0.425-0.515,0.425-0.892s-0.142-0.675-0.425-0.892
		c-0.282-0.217-0.699-0.327-1.249-0.327h-2.228v2.438H88.772z"/>
	<path class="st4" d="M96.737,15.818h-3.176v-1.945h8.739v1.945h-3.176v7.693h-2.388V15.818z"/>
	<path class="st4" d="M69.499,28.642h2.633l2.622,6.831l2.621-6.831h2.634l-3.951,9.638h-2.609L69.499,28.642z"/>
	<path class="st4" d="M82.509,37.861c-0.837-0.425-1.485-1.022-1.945-1.791c-0.459-0.767-0.689-1.643-0.689-2.627
		c0-0.984,0.23-1.856,0.689-2.615c0.459-0.759,1.108-1.35,1.945-1.772c0.837-0.424,1.801-0.635,2.892-0.635
		c1.084,0,2.039,0.211,2.868,0.635c0.828,0.422,1.472,1.013,1.933,1.772c0.459,0.759,0.689,1.631,0.689,2.615
		c0,0.984-0.229,1.86-0.689,2.627c-0.46,0.768-1.106,1.365-1.939,1.791c-0.833,0.427-1.787,0.641-2.862,0.641
		C84.31,38.502,83.345,38.288,82.509,37.861z M82.792,35.006c0.246,0.451,0.595,0.8,1.046,1.046
		c0.451,0.246,0.972,0.369,1.563,0.369c0.582,0,1.097-0.123,1.545-0.369c0.447-0.246,0.794-0.595,1.04-1.046
		c0.246-0.451,0.369-0.972,0.369-1.563c0-0.591-0.123-1.107-0.369-1.551c-0.246-0.443-0.593-0.787-1.04-1.028
		c-0.447-0.241-0.962-0.363-1.545-0.363c-0.591,0-1.112,0.121-1.563,0.363c-0.452,0.241-0.8,0.585-1.046,1.028
		c-0.246,0.443-0.369,0.96-0.369,1.551C82.423,34.034,82.546,34.555,82.792,35.006z"/>
	<path class="st4" d="M92.244,28.642h2.683l4.222,6.204v-6.204h2.387v9.638h-2.682l-4.223-6.216v6.216h-2.387V28.642z"/>
</g>
<g class="st3">
	<path class="st8" d="M26.908,22.94h2.904c0.881,0,1.546,0.177,1.995,0.53c0.449,0.354,0.673,0.86,0.673,1.52
		c0,0.665-0.227,1.185-0.681,1.56c-0.454,0.375-1.116,0.562-1.987,0.562h-1.369v2.026h-1.535V22.94z M29.789,25.869
		c0.348,0,0.615-0.079,0.799-0.238c0.185-0.158,0.277-0.361,0.277-0.609s-0.092-0.45-0.277-0.605
		c-0.185-0.155-0.451-0.233-0.799-0.233h-1.346v1.686H29.789z"/>
	<path class="st8" d="M33.224,22.94h3.015c0.844,0,1.495,0.149,1.951,0.447c0.457,0.298,0.685,0.743,0.685,1.333
		c0,0.327-0.087,0.622-0.261,0.883c-0.174,0.261-0.435,0.471-0.784,0.629c0.575,0.095,0.863,0.464,0.863,1.108v0.855
		c0,0.189,0.013,0.35,0.04,0.479s0.074,0.278,0.143,0.447v0.016h-1.591c-0.047-0.121-0.081-0.24-0.099-0.356
		c-0.019-0.115-0.027-0.25-0.027-0.403v-0.673c0-0.285-0.066-0.487-0.198-0.605s-0.356-0.178-0.672-0.178h-1.528v2.216h-1.535V22.94
		z M36.192,25.758c0.354,0,0.622-0.07,0.803-0.21c0.182-0.14,0.273-0.331,0.273-0.574s-0.091-0.434-0.273-0.574
		c-0.182-0.14-0.45-0.21-0.803-0.21h-1.433v1.567H36.192z"/>
	<path class="st8" d="M41.93,22.94h1.765l2.651,6.197h-1.678l-0.443-1.132h-2.817l-0.443,1.132h-1.678L41.93,22.94z M41.352,21.208
		h1.243v1.306h-1.243V21.208z M43.734,26.771l-0.918-2.342l-0.918,2.342H43.734z M43.022,21.208h1.25v1.306h-1.25V21.208z"/>
	<path class="st8" d="M47.941,29.022c-0.425-0.166-0.764-0.4-1.017-0.704c-0.253-0.303-0.401-0.653-0.443-1.048h1.63
		c0.026,0.132,0.101,0.26,0.222,0.384c0.122,0.124,0.281,0.226,0.479,0.305c0.198,0.079,0.418,0.119,0.661,0.119
		c0.349,0,0.614-0.06,0.795-0.178c0.182-0.119,0.273-0.283,0.273-0.495c0-0.143-0.054-0.262-0.163-0.36
		c-0.108-0.098-0.286-0.175-0.534-0.233l-1.409-0.317c-0.538-0.121-0.954-0.314-1.247-0.578s-0.439-0.638-0.439-1.124
		c0-0.364,0.104-0.696,0.313-0.997c0.208-0.301,0.516-0.541,0.922-0.72s0.895-0.269,1.464-0.269c0.527,0,0.988,0.081,1.381,0.241
		c0.393,0.161,0.699,0.388,0.918,0.681c0.219,0.293,0.342,0.635,0.368,1.025h-1.63c-0.053-0.227-0.185-0.409-0.396-0.546
		c-0.211-0.137-0.454-0.206-0.729-0.206c-0.301,0-0.54,0.057-0.716,0.17s-0.265,0.268-0.265,0.463c0,0.132,0.06,0.246,0.178,0.34
		c0.119,0.095,0.321,0.171,0.605,0.229l1.116,0.237c0.633,0.132,1.101,0.336,1.405,0.614c0.303,0.277,0.455,0.661,0.455,1.151
		c0,0.396-0.108,0.75-0.325,1.061c-0.216,0.311-0.532,0.557-0.946,0.735c-0.414,0.18-0.909,0.27-1.484,0.27
		C48.848,29.272,48.366,29.189,47.941,29.022z"/>
	<path class="st8" d="M52.987,22.94h4.938v1.25h-3.403v1.156h3.166v1.243h-3.166v1.298h3.499v1.25h-5.034V22.94z"/>
	<path class="st8" d="M59.01,22.94h1.725l2.715,3.989V22.94h1.536v6.197H63.26l-2.715-3.997v3.997H59.01V22.94z"/>
	<path class="st8" d="M67.731,24.191h-2.042v-1.25h5.619v1.25h-2.042v4.947h-1.535V24.191z"/>
	<path class="st8" d="M72.005,22.94h1.535v6.197h-1.535V22.94z"/>
	<path class="st8" d="M74.807,22.94h4.938v1.25h-3.403v1.156h3.166v1.243h-3.166v1.298h3.499v1.25h-5.034V22.94z"/>
	<path class="st8" d="M80.83,22.94h3.015c0.844,0,1.495,0.149,1.951,0.447c0.457,0.298,0.685,0.743,0.685,1.333
		c0,0.327-0.087,0.622-0.261,0.883c-0.174,0.261-0.435,0.471-0.784,0.629c0.575,0.095,0.863,0.464,0.863,1.108v0.855
		c0,0.189,0.013,0.35,0.04,0.479s0.074,0.278,0.143,0.447v0.016H84.89c-0.047-0.121-0.081-0.24-0.099-0.356
		c-0.019-0.115-0.027-0.25-0.027-0.403v-0.673c0-0.285-0.066-0.487-0.198-0.605s-0.356-0.178-0.672-0.178h-1.528v2.216H80.83V22.94z
		 M83.798,25.758c0.354,0,0.622-0.07,0.803-0.21c0.182-0.14,0.273-0.331,0.273-0.574s-0.091-0.434-0.273-0.574
		c-0.182-0.14-0.45-0.21-0.803-0.21h-1.433v1.567H83.798z"/>
	<path class="st8" d="M88.919,24.191h-2.042v-1.25h5.62v1.25h-2.042v4.947h-1.536V24.191z"/>
	<path class="st8" d="M71.404,32.438h1.693l1.686,4.393l1.686-4.393h1.694l-2.541,6.197h-1.678L71.404,32.438z"/>
	<path class="st8" d="M79.77,38.365c-0.538-0.273-0.955-0.657-1.25-1.151c-0.295-0.493-0.443-1.057-0.443-1.689
		s0.148-1.193,0.443-1.682s0.712-0.868,1.25-1.14c0.538-0.272,1.158-0.408,1.86-0.408c0.697,0,1.311,0.136,1.844,0.408
		c0.533,0.271,0.947,0.651,1.243,1.14c0.295,0.488,0.443,1.049,0.443,1.682s-0.147,1.196-0.443,1.689
		c-0.296,0.494-0.711,0.878-1.247,1.151c-0.536,0.274-1.149,0.412-1.84,0.412C80.928,38.777,80.308,38.64,79.77,38.365z
		 M79.952,36.529c0.158,0.29,0.382,0.515,0.673,0.673c0.29,0.158,0.625,0.237,1.005,0.237c0.375,0,0.706-0.079,0.993-0.237
		s0.511-0.383,0.669-0.673s0.237-0.625,0.237-1.005s-0.079-0.712-0.237-0.997s-0.381-0.506-0.669-0.661s-0.619-0.233-0.993-0.233
		c-0.38,0-0.715,0.078-1.005,0.233c-0.291,0.155-0.515,0.376-0.673,0.661s-0.237,0.617-0.237,0.997S79.794,36.239,79.952,36.529z"/>
	<path class="st8" d="M86.03,32.438h1.725l2.715,3.989v-3.989h1.535v6.197h-1.725l-2.715-3.997v3.997H86.03V32.438z"/>
</g>
</svg>
